<?xml version="1.0" encoding="utf-8"?>
<!-- Generator: Adobe Illustrator 14.0.0, SVG Export Plug-In . SVG Version: 6.00 Build 43363)  -->
<!DOCTYPE svg PUBLIC "-//W3C//DTD SVG 1.1 Basic//EN" "http://www.w3.org/Graphics/SVG/1.1/DTD/svg11-basic.dtd">
<svg version="1.1" baseProfile="basic" id="Layer_1"
	 xmlns="http://www.w3.org/2000/svg" xmlns:xlink="http://www.w3.org/1999/xlink" x="0px" y="0px" width="50px" height="50px"
	 viewBox="0 0 50 50" xml:space="preserve">
<linearGradient id="SVGID_1_" gradientUnits="userSpaceOnUse" x1="4.7188" y1="24.5674" x2="41.6758" y2="24.5674" gradientTransform="matrix(1.2603 0.0058 0.0058 1.2812 -5.0593 -7.0168)">
	<stop  offset="0" style="stop-color:#FF0000"/>
	<stop  offset="1" style="stop-color:#00FFFF"/>
</linearGradient>
<path fill="url(#SVGID_1_)" stroke="#000000" d="M45.859,41.278c-2.299-3.044-7.794-7.513-8.184-1.964
	c-4.787-6.791-7.157-8.889-8.182-1.963c1.024-6.926-2.014-0.805-6.194,5.62c-0.745-1.956-6.071,5.399-6.194,5.618
	c0.123-0.219,2.008-7.666-0.733-8.38c2.125-6.336,4.648-11.506-0.734-8.38c5.382-3.126-0.817-3.143-7.307-4.209
	c0.235-2.537-7.217-4.21-7.307-4.208c0.09-0.003,8.547-1.484,7.729-3.215c7.196-0.923,14.226-0.853,7.729-3.215
	c6.497,2.362,5.354-1.081,1.678-8.221c4.827,1.503,3.052-5.671,1.677-8.22c1.375,2.549,6.438,10.796,5.511,6.392
	c4.206,8.208,6.039,12.247,5.511,6.393c0.528,5.854,2.349,4.809,8.344-0.872c-2.2,5.284,3.445,2.502,8.344-0.873
	c-4.898,3.375-9.812,7.685-4.324,7.167c-7.396,3.682-9.121,4.901-4.323,7.166c-4.798-2.265-2.339,0.539,3.479,7.681
	C38.454,30.635,43.561,38.234,45.859,41.278z"/>
</svg>
