<?xml version="1.0" encoding="UTF-8" standalone="no"?>
<!-- Generator: Adobe Illustrator 14.0.0, SVG Export Plug-In . SVG Version: 6.00 Build 43363)  -->

<svg
   xmlns:dc="http://purl.org/dc/elements/1.1/"
   xmlns:cc="http://creativecommons.org/ns#"
   xmlns:rdf="http://www.w3.org/1999/02/22-rdf-syntax-ns#"
   xmlns:svg="http://www.w3.org/2000/svg"
   xmlns="http://www.w3.org/2000/svg"
   xmlns:sodipodi="http://sodipodi.sourceforge.net/DTD/sodipodi-0.dtd"
   xmlns:inkscape="http://www.inkscape.org/namespaces/inkscape"
   version="1.1"
   id="Layer_1"
   x="0px"
   y="0px"
   width="50px"
   height="50px"
   viewBox="0 0 50 50"
   xml:space="preserve"
   inkscape:version="0.48.4 r9939"
   sodipodi:docname="star3.svg"><metadata
   id="metadata3047"><rdf:RDF><cc:Work
       rdf:about=""><dc:format>image/svg+xml</dc:format><dc:type
         rdf:resource="http://purl.org/dc/dcmitype/StillImage" /><dc:title /></cc:Work></rdf:RDF></metadata><defs
   id="defs3045" /><sodipodi:namedview
   pagecolor="#ffffff"
   bordercolor="#666666"
   borderopacity="1"
   objecttolerance="10"
   gridtolerance="10"
   guidetolerance="10"
   inkscape:pageopacity="0"
   inkscape:pageshadow="2"
   inkscape:window-width="1366"
   inkscape:window-height="718"
   id="namedview3043"
   showgrid="false"
   inkscape:zoom="9.44"
   inkscape:cx="15.51491"
   inkscape:cy="26.700501"
   inkscape:window-x="-8"
   inkscape:window-y="-8"
   inkscape:window-maximized="1"
   inkscape:current-layer="Layer_1" />
<linearGradient
   id="SVGID_1_"
   gradientUnits="userSpaceOnUse"
   x1="4.7188"
   y1="24.5674"
   x2="41.6758"
   y2="24.5674"
   gradientTransform="matrix(1.2436716,0.00582516,0.00572347,1.2867576,-4.349597,-7.2597275)">
	<stop
   offset="0"
   style="stop-color:#FF0000"
   id="stop2995" />
	<stop
   offset="1"
   style="stop-color:#00FFFF"
   id="stop2997" />
</linearGradient>

<line
   x1="5.1685133"
   y1="4.6602626"
   x2="5.1685133"
   y2="44.187733"
   id="line2999"
   style="stroke:#000080;stroke-width:0.07964876" />
<line
   x1="9.1808672"
   y1="4.6602626"
   x2="9.1808672"
   y2="44.187733"
   id="line3001"
   style="stroke:#0000ff;stroke-width:0.03982438;stroke-dasharray:0.39824385, 0.39824385" />
<line
   x1="13.193219"
   y1="4.6602626"
   x2="13.193219"
   y2="44.187733"
   id="line3003"
   style="stroke:#0000ff;stroke-width:0.03982438;stroke-dasharray:0.39824385, 0.39824385" />
<line
   x1="17.205572"
   y1="4.6602626"
   x2="17.205572"
   y2="44.187733"
   id="line3005"
   style="stroke:#0000ff;stroke-width:0.03982438;stroke-dasharray:0.39824385, 0.39824385" />
<line
   x1="21.217926"
   y1="4.6602626"
   x2="21.217926"
   y2="44.187733"
   id="line3007"
   style="stroke:#0000ff;stroke-width:0.03982438;stroke-dasharray:0.39824385, 0.39824385" />
<line
   x1="25.230278"
   y1="4.6602626"
   x2="25.230278"
   y2="44.187733"
   id="line3009"
   style="stroke:#000080;stroke-width:0.07964876" />
<line
   x1="29.242638"
   y1="4.6602626"
   x2="29.242638"
   y2="44.187733"
   id="line3011"
   style="stroke:#0000ff;stroke-width:0.03982438;stroke-dasharray:0.39824385, 0.39824385" />
<line
   x1="33.254986"
   y1="4.6602626"
   x2="33.254986"
   y2="44.187733"
   id="line3013"
   style="stroke:#0000ff;stroke-width:0.03982438;stroke-dasharray:0.39824385, 0.39824385" />
<line
   x1="37.267338"
   y1="4.6602626"
   x2="37.267338"
   y2="44.187733"
   id="line3015"
   style="stroke:#0000ff;stroke-width:0.03982438;stroke-dasharray:0.39824385, 0.39824385" />
<line
   x1="41.27969"
   y1="4.6602626"
   x2="41.27969"
   y2="44.187733"
   id="line3017"
   style="stroke:#0000ff;stroke-width:0.03982438;stroke-dasharray:0.39824385, 0.39824385" />
<line
   x1="5.1685133"
   y1="4.6602626"
   x2="45.292046"
   y2="4.6602626"
   id="line3019"
   style="stroke:#000080;stroke-width:0.07964876" />
<line
   x1="5.1685133"
   y1="8.6130075"
   x2="45.292046"
   y2="8.6130075"
   id="line3021"
   style="stroke:#0000ff;stroke-width:0.03982438;stroke-dasharray:0.39824385, 0.39824385" />
<line
   x1="5.1685133"
   y1="12.565758"
   x2="45.292046"
   y2="12.565758"
   id="line3023"
   style="stroke:#0000ff;stroke-width:0.03982438;stroke-dasharray:0.39824385, 0.39824385" />
<line
   x1="5.1685133"
   y1="16.518501"
   x2="45.292046"
   y2="16.518501"
   id="line3025"
   style="stroke:#0000ff;stroke-width:0.03982438;stroke-dasharray:0.39824385, 0.39824385" />
<line
   x1="5.1685133"
   y1="20.471251"
   x2="45.292046"
   y2="20.471251"
   id="line3027"
   style="stroke:#0000ff;stroke-width:0.03982438;stroke-dasharray:0.39824385, 0.39824385" />
<line
   x1="5.1685133"
   y1="24.423998"
   x2="45.292046"
   y2="24.423998"
   id="line3029"
   style="stroke:#000080;stroke-width:0.07964876" />
<line
   x1="5.1685133"
   y1="28.376743"
   x2="45.292046"
   y2="28.376743"
   id="line3031"
   style="stroke:#0000ff;stroke-width:0.03982438;stroke-dasharray:0.39824385, 0.39824385" />
<line
   x1="5.1685133"
   y1="32.329487"
   x2="45.292046"
   y2="32.329487"
   id="line3033"
   style="stroke:#0000ff;stroke-width:0.03982438;stroke-dasharray:0.39824385, 0.39824385" />
<line
   x1="5.1685133"
   y1="36.282234"
   x2="45.292046"
   y2="36.282234"
   id="line3035"
   style="stroke:#0000ff;stroke-width:0.03982438;stroke-dasharray:0.39824385, 0.39824385" />
<line
   x1="5.1685133"
   y1="40.234989"
   x2="45.292046"
   y2="40.234989"
   id="line3037"
   style="stroke:#0000ff;stroke-width:0.03982438;stroke-dasharray:0.39824385, 0.39824385" />
<rect
   x="5.1685133"
   y="4.6602626"
   width="40.123528"
   height="39.527466"
   id="rect3039"
   style="fill:none;stroke:#000000;stroke-width:0.07964876" />

<rect
   x="0.8157708"
   y="44.477318"
   height="4.0058451"
   width="48.635864"
   id="rect3201"
   style="fill:#ffffff;stroke:none" />
<rect
   x="0.8157708"
   y="4.4188662"
   width="4.052989"
   height="40.058449"
   id="rect3203"
   style="fill:#ffffff;stroke:none" />
<rect
   x="45.398647"
   y="4.4188662"
   width="4.0565143"
   height="40.058449"
   id="rect3205"
   style="fill:#ffffff;stroke:none" />
<rect
   x="0.8157708"
   y="0.41302142"
   width="48.635864"
   height="4.0058451"
   id="rect3207"
   style="fill:#ffffff;stroke:none" />

<text
   x="4.8403602"
   y="47.155849"
   font-size="2px"
   id="text3209"
   transform="scale(1.0058672,0.99416705)">-5</text>




<text
   x="24.671164"
   y="47.155849"
   font-size="2px"
   id="text3211"
   transform="scale(1.0058672,0.99416703)"
   style="font-size:2px">0</text>




<text
   x="45.133854"
   y="47.155849"
   font-size="2px"
   id="text3213"
   transform="scale(1.0058672,0.99416705)">5</text>




<text
   x="45.939713"
   y="45.141178"
   font-size="2px"
   id="text3215"
   transform="scale(1.0058672,0.99416705)">-5</text>




<text
   x="45.939713"
   y="24.994473"
   font-size="2px"
   id="text3217"
   transform="scale(1.0058672,0.99416705)">0</text>




<text
   x="45.939713"
   y="4.8477268"
   font-size="2px"
   id="text3219"
   transform="scale(1.0058672,0.99416705)">5</text>


<path fill="url(#SVGID_1_)" stroke="#000000"
   d="M 21.171577,43.986133 q 1.118717,-1.511915 1.217414,-1.999298 1.118718,-1.495884 1.217414,-1.989256 1.118717,-1.491862 1.217414,
   -1.979212 1.118717,-1.485841 1.217414,-1.96917 1.118717,-1.481818 1.217415,-1.959126 1.118717,-1.475796 1.217414,-1.949181 1.118717,
   -1.471775 1.217414,-1.93914 1.118716,-1.465754 1.217414,-1.928996 1.118717,-1.461732 1.217414,-1.918953 1.118717,-1.455711 1.217414,
   -1.918911 1.118717,-1.451688 1.217415,-1.898866 1.118717,-1.445667 1.217414,-1.888823 1.118716,-1.441646 1.217413,-1.87878 1.118717,
   -1.435624 1.217414,-1.868738 1.118718,-1.431612 1.217415,-1.858693 1.118717,-1.42558 1.217414,-1.84865 1.118717,-1.42156 1.217413,
   -1.838618 1.118718,-1.415537 1.217415,-1.828564 1.118717,-1.411516 1.217414,-1.818521 1.118717,-1.415494 1.217414,-1.818477 1.118718,
   -1.411473 1.217414,-1.798436 1.118717,-1.39545 1.217414,-1.788391 1.118717,-1.391429 1.217414,-1.778348 1.118717,-1.385418 1.217415,
   -1.768314 1.118717,-1.381387 1.217414,-1.758262 1.118717,-1.375366 1.217414,-1.748219 1.118716,-1.371343 1.217414,-1.738175 1.118717,
   -1.365322 1.217414,-1.728133 1.118717,-1.361299 1.217414,-1.718188 1.118717,-1.355279 1.217415,-1.718147 1.118717,-1.351256 1.217414,
   -1.698112 1.118716,-1.345235 1.217413,-1.687959 1.118717,-1.341214 1.217414,-1.677916 1.118718,-1.335192 1.217415,-1.667874 1.118717,
   -1.331169 1.217414,-1.657829 1.118717,-1.325149 1.217414,-1.647786 1.118717,-1.321128 1.217414,-1.637744 1.118717,-1.315116 1.217414,
   -1.6277 1.118717,-1.311184 1.217414,-1.617657 1.118717,-1.315162 1.217415,-1.617614 1.118717,-1.311141 1.217414,-1.59757 1.118717,
   -1.29512 1.217413,-1.587528 1.118717,-1.289997 1.217415,-1.577483 Q 29.629191,9.8112279 29.737798,9.5177631 29.846515,9.2378187 
   29.955212,8.9613652 31.163919,8.6854325 31.172627,8.4131117 31.281334,8.1431997 31.39114,7.8756994 31.498747,7.6118199 31.617454,
   7.3484313 31.716161,7.1885634 31.824868,6.8312164 31.933576,6.5763612 31.142283,6.3241247 31.15199,6.1742 31.259697,5.8268862 
   31.368414,5.5821831 31.477111,5.3397919 31.585818,5.1111194 31.694525,4.8627388z" 
   id="path3341" />

<path fill="url(#SVGID_1_)" stroke="#000000" d="M45.859,41.278c-2.299-3.044-7.794-7.513-8.184-1.964
	c-4.787-6.791-7.157-8.889-8.182-1.963c1.024-6.926-2.014-0.805-6.194,5.62c-0.745-1.956-6.071,5.399-6.194,5.618
	c0.123-0.219,2.008-7.666-0.733-8.38c2.125-6.336,4.648-11.506-0.734-8.38c5.382-3.126-0.817-3.143-7.307-4.209
	c0.235-2.537-7.217-4.21-7.307-4.208c0.09-0.003,8.547-1.484,7.729-3.215c7.196-0.923,14.226-0.853,7.729-3.215
	c6.497,2.362,5.354-1.081,1.678-8.221c4.827,1.503,3.052-5.671,1.677-8.22c1.375,2.549,6.438,10.796,5.511,6.392
	c4.206,8.208,6.039,12.247,5.511,6.393c0.528,5.854,2.349,4.809,8.344-0.872c-2.2,5.284,3.445,2.502,8.344-0.873
	c-4.898,3.375-9.812,7.685-4.324,7.167c-7.396,3.682-9.121,4.901-4.323,7.166c-4.798-2.265-2.339,0.539,3.479,7.681
	C38.454,30.635,43.561,38.234,45.859,41.278z"/>
	
</svg>